<svg width="90" height="90" viewBox="0 0 90 90" fill="none" xmlns="http://www.w3.org/2000/svg">
<path d="M73.125 53.4375V43.5938C73.125 40.2371 71.7916 37.0179 69.4181 34.6444C67.0446 32.2709 63.8254 30.9375 60.4688 30.9375H54.8438C53.7249 30.9375 52.6518 30.493 51.8606 29.7019C51.0695 28.9107 50.625 27.8376 50.625 26.7188V21.0938C50.625 17.7371 49.2916 14.5179 46.9181 12.1444C44.5446 9.77092 41.3254 8.4375 37.9688 8.4375H30.9375M30.9375 56.25H59.0625M30.9375 67.5H45M39.375 8.4375H21.0938C18.765 8.4375 16.875 10.3275 16.875 12.6562V77.3438C16.875 79.6725 18.765 81.5625 21.0938 81.5625H68.9062C71.235 81.5625 73.125 79.6725 73.125 77.3438V42.1875C73.125 33.2364 69.5692 24.652 63.2399 18.3226C56.9105 11.9933 48.3261 8.4375 39.375 8.4375Z" stroke="black" stroke-width="6" stroke-linecap="round" stroke-linejoin="round"/>
</svg>
